<svg xmlns="http://www.w3.org/2000/svg" xmlns:svg="http://www.w3.org/2000/svg" id="svg3" height="100%" stroke-miterlimit="10" style="fill-rule:nonzero;clip-rule:evenodd;stroke-linecap:round;stroke-linejoin:round" width="100%" version="1.1" viewBox="0 0 512 512" xml:space="preserve"><defs id="defs1"><rect id="rect8" width="610.55" height="563.915" x="-7.653" y="-7.017"/><rect id="rect4" width="469.245" height="356.097" x="36.316" y="86.596"/></defs><clipPath id="ArtboardFrame"><rect id="rect1" width="512" height="512" x="0" y="0"/></clipPath><g id="Ebene-1" clip-path="url(#ArtboardFrame)"><path id="rect9" style="fill:#000;stroke-width:1.03416" d="M 64,0 C 28.653776,0 0,26.197653 0,64 v 384 c 0,37.80235 28.653778,64 64,64 h 384 c 35.34622,0 64,-26.19765 64,-64 V 64 C 512,26.197653 483.34622,0 448,0 Z"/><path id="text9" d="m 403.64568,299.8639 q 0,15.62499 -4.72005,27.99477 -4.55729,12.36978 -13.99738,20.99607 -9.27734,8.78905 -23.43748,13.34634 -14.16014,4.55729 -33.36585,4.55729 -11.8815,0 -26.52992,-2.44141 -14.64843,-2.4414 -30.92445,-7.16145 -5.69661,-1.79036 -7.16145,-6.83593 -1.46485,-5.04557 1.6276,-15.1367 1.46484,-4.88281 3.2552,-7.8125 1.79037,-2.92968 3.74349,-4.39452 2.11588,-1.30208 4.39453,-1.46484 2.27864,0 4.8828,0.65104 11.39322,3.2552 23.27472,5.37108 12.04426,2.27865 21.80988,2.27865 19.69399,0 27.99476,-8.46353 8.46353,-8.30078 8.46353,-24.73956 v -17.41535 q -8.30077,8.95181 -19.20571,13.83462 -10.74217,4.88281 -23.60023,4.88281 -16.11327,0 -29.13409,-5.69661 -12.85806,-5.85937 -22.1354,-15.95051 -9.11457,-10.25389 -13.99738,-24.25127 -4.88281,-13.99739 -4.88281,-30.43617 0,-16.43879 4.88281,-30.43617 4.88281,-13.99738 13.99738,-24.08852 9.27734,-10.2539 22.1354,-15.9505 13.02082,-5.85937 29.13409,-5.85937 15.78774,0 28.32028,6.51041 12.53254,6.51041 20.99607,18.71743 v -11.39322 q 0,-5.53385 2.27865,-7.81249 2.4414,-2.44141 7.97525,-2.44141 h 38.0859 q 2.76692,0 4.72005,0.65104 1.95312,0.65104 3.09244,2.60417 1.30208,1.79036 1.79037,5.04557 0.65104,3.2552 0.65104,8.46353 0,5.20833 -0.65104,8.46353 -0.48829,3.25521 -1.79037,5.04557 -1.13932,1.79036 -3.09244,2.4414 -1.95313,0.65104 -4.72005,0.65104 h -14.16014 z m -39.55074,-78.28768 q 0,-9.92838 -3.09245,-17.25259 -2.92968,-7.48697 -8.13801,-12.36978 -5.04557,-4.88281 -11.8815,-7.32421 -6.67317,-2.44141 -14.3229,-2.44141 -14.97395,0 -24.08852,10.09114 -8.95182,10.09114 -8.95182,29.29685 0,19.20571 8.95182,29.29684 9.11457,10.09114 24.08852,10.09114 7.64973,0 14.3229,-2.4414 6.83593,-2.44141 11.8815,-7.32422 5.20833,-4.8828 8.13801,-12.20702 3.09245,-7.48697 3.09245,-17.41534 z" style="font-weight:700;font-size:333.333px;font-family:'Courier Prime';-inkscape-font-specification:'Courier Prime Bold';fill:#0f0" aria-label="g"/><path d="m 116.08389,176.16878 c -1.39203,-0.008 -2.80646,0.1275 -4.18755,0.49895 -11.924482,3.18394 -15.919992,18.09046 -7.18758,26.81274 l 52.68771,52.68741 -52.68771,52.68731 c -13.564392,15.06404 7.56164,36.18976 22.62528,22.62528 l 64,-64 c 6.2468,-6.24831 6.2468,-16.37698 0,-22.62528 l -64,-64 c -3.02391,-3.03677 -7.07614,-4.66332 -11.25015,-4.68731 z" style="fill:#0f0;stroke-width:20.901" id="path5"/></g></svg>