<?xml version="1.0" encoding="UTF-8" standalone="no"?>
<!-- Created with Inkscape (http://www.inkscape.org/) -->

<svg
   width="1280"
   height="640"
   viewBox="0 0 338.66666 169.33333"
   version="1.1"
   id="svg1"
   xmlns="http://www.w3.org/2000/svg"
   xmlns:svg="http://www.w3.org/2000/svg"
   xmlns:rdf="http://www.w3.org/1999/02/22-rdf-syntax-ns#"
   xmlns:cc="http://creativecommons.org/ns#"
   xmlns:dc="http://purl.org/dc/elements/1.1/">
  <defs
     id="defs1">
    <rect
       x="-7.652564"
       y="-7.0166073"
       width="610.55023"
       height="563.91455"
       id="rect8" />
  </defs>
  <metadata
     id="metadata1">
    <rdf:RDF>
      <cc:Work
         rdf:about="">
        <dc:format>image/svg+xml</dc:format>
        <dc:type
           rdf:resource="http://purl.org/dc/dcmitype/StillImage" />
      </cc:Work>
    </rdf:RDF>
  </metadata>
  <path
     id="rect9"
     style="clip-rule:evenodd;fill:#000000;fill-rule:nonzero;stroke-width:0.377976;stroke-linecap:round;stroke-linejoin:round"
     d="M 24.190476,-2.75744e-6 C 10.830446,-2.75744e-6 1.8637854e-6,10.83044 -4.793155e-7,24.19047 V 145.14286 C 3.3866769e-6,158.50289 10.830447,169.33333 24.190476,169.33333 H 314.47625 c 13.36004,1e-5 24.19049,-10.83044 24.19049,-24.19047 V 24.19047 C 338.66674,10.830435 327.83629,-9.9371438e-6 314.47625,-2.75744e-6 Z" />
  <text
     xml:space="preserve"
     id="text8"
     style="font-style:normal;font-variant:normal;font-weight:bold;font-stretch:normal;font-size:266.667px;font-family:'Courier Prime';-inkscape-font-specification:'Courier Prime Bold';white-space:pre;shape-inside:url(#rect8);clip-rule:evenodd;display:inline;fill:#00ff00;fill-rule:nonzero;stroke-linecap:round;stroke-linejoin:round"
     transform="matrix(0.3779762,0,0,0.3779762,0,-12.095246)" />
  <path
     d="m 152.56846,101.24617 q 0,5.90588 -1.78407,10.58136 -1.72254,4.67549 -5.29067,7.93602 -3.50662,3.32204 -8.85882,5.0446 -5.35218,1.72254 -12.61148,1.72254 -4.49093,0 -10.02769,-0.9228 -5.53676,-0.92279 -11.6887,-2.70686 -2.15319,-0.67671 -2.706858,-2.58381 -0.553686,-1.9071 0.615188,-5.72132 0.55368,-1.84558 1.2304,-2.95293 0.67671,-1.10735 1.41494,-1.66102 0.79976,-0.49216 1.66103,-0.55368 0.86127,0 1.84558,0.24608 4.30636,1.23038 8.79729,2.03014 4.55244,0.86127 8.24362,0.86127 7.44385,0 10.58135,-3.19901 3.19902,-3.1375 3.19902,-9.35096 v -6.582588 q -3.1375,3.383572 -7.2593,5.229157 -4.06029,1.845591 -8.92033,1.845591 -6.09043,0 -11.012,-2.153191 -4.86003,-2.2147 -8.36665,-6.028914 -3.445096,-3.875729 -5.290681,-9.166401 -1.845586,-5.290686 -1.845586,-11.504157 0,-6.213472 1.845586,-11.504144 1.845585,-5.290672 5.290681,-9.104886 3.50662,-3.875729 8.36665,-6.028915 4.92157,-2.2147 11.012,-2.2147 5.96738,0 10.70438,2.460786 4.737,2.460772 7.93602,7.074743 V 48.0318 q 0,-2.091658 0.86129,-2.952929 0.92278,-0.9228 3.01444,-0.9228 h 14.39557 q 1.04583,0 1.78406,0.246086 0.73824,0.246071 1.16887,0.984314 0.49216,0.6767 0.67671,1.9071 0.24609,1.230386 0.24609,3.199014 0,1.968629 -0.24609,3.199015 -0.18455,1.230386 -0.67671,1.9071 -0.43063,0.676714 -1.16887,0.922786 -0.73823,0.246086 -1.78406,0.246086 h -5.3522 z M 137.61922,71.655287 q 0,-3.752686 -1.16888,-6.521058 -1.10734,-2.8299 -3.07597,-4.675486 -1.9071,-1.845586 -4.49091,-2.768386 -2.5223,-0.922785 -5.41373,-0.922785 -5.65979,0 -9.10489,3.814214 -3.38357,3.8142 -3.38357,11.073501 0,7.2593 3.38357,11.073514 3.4451,3.814215 9.10489,3.814215 2.89143,0 5.41373,-0.9228 2.58381,-0.922786 4.49091,-2.768372 1.96863,-1.845586 3.07597,-4.613971 1.16888,-2.829886 1.16888,-6.582586 z"
     id="text9"
     style="font-weight:bold;font-size:333.333px;font-family:'Courier Prime';-inkscape-font-specification:'Courier Prime Bold';clip-rule:evenodd;fill:#00ff00;fill-rule:nonzero;stroke-width:0.377976;stroke-linecap:round;stroke-linejoin:round"
     aria-label="g" />
  <path
     d="m 43.876955,54.492357 c -0.526158,-0.0029 -1.060786,0.04814 -1.582801,0.1886 -4.507171,1.203443 -6.017378,6.837758 -2.716728,10.134572 L 59.492127,84.730116 39.577426,104.64466 c -5.127025,5.69386 2.858114,13.67887 8.551814,8.55183 L 72.319713,89.006002 c 2.361143,-2.361715 2.361143,-6.190101 0,-8.551815 L 48.12924,56.263714 c -1.142971,-1.147828 -2.674614,-1.762628 -4.252285,-1.7717 z"
     style="clip-rule:evenodd;fill:#00ff00;fill-rule:nonzero;stroke-width:7.90009;stroke-linecap:round;stroke-linejoin:round"
     id="path5" />
</svg>
